<?xml version="1.0" encoding="utf-8"?>
<!-- Generator: Adobe Illustrator 25.2.0, SVG Export Plug-In . SVG Version: 6.00 Build 0)  -->
<svg version="1.1" id="Layer_1" xmlns="http://www.w3.org/2000/svg" xmlns:xlink="http://www.w3.org/1999/xlink" x="0px" y="0px"
	 viewBox="0 0 120 120" style="enable-background:new 0 0 120 120;" xml:space="preserve">
<style type="text/css">
	.st0{fill:#391854;}
	.st1{fill:#F1F2F2;}
	.st2{fill:#F2B541;}
	.st3{fill:#DAD9D9;}
</style>
<g>
	<rect x="11.5" class="st0" width="97" height="120"/>
	<path class="st1" d="M97.7,10.3c5.2,5.5,5.1,14.1-0.3,19.5c-5.5,5.4-14.3,5.4-19.7,0c-5.4-5.5-5.4-14.3,0-19.7
		c5.4-5.4,14-5.4,19.5-0.3"/>
	<g>
		<g>
			<path class="st2" d="M100,39.7c-2,10.6-6.3,19.7-12.6,26.5C79,75.5,67,80.8,52.8,80.8c-0.7,0-1.5,0-2.2,0
				c-12.3-0.4-24.4-6-35.2-11.8V3.2H82c-5.8,0-11.6,2.2-16,6.6c-8.9,8.9-8.9,23.2,0,32.1c8.9,8.9,23.2,8.9,32.1,0
				C98.8,41.2,99.4,40.5,100,39.7z"/>
			<path class="st2" d="M104.7,26.4v62.4c-1.1-9-6.4-16.6-13.9-21C99.9,57.5,104.7,43.2,104.7,26.4z"/>
			<path class="st2" d="M104.7,89.6v3H15.3V75.4c10.5,5.3,22.1,8.3,33.9,8.8c1.2,0.1,2.4,0.1,3.5,0.1c8.5,0,16.4-1.8,23.4-5.3
				c1.5-0.7,3-1.6,4.4-2.5c0.6-0.4,1.2-0.7,1.9-0.9c1.6-0.5,3.2-0.7,4.9-0.7C96.1,74.9,103.3,81.3,104.7,89.6z"/>
		</g>
		<g>
			<g>
				<path class="st3" d="M93.1,105.4l0,1.5c0,0.6-0.1,1.2-0.2,1.8c-0.2,0.6-0.7,1.2-1.5,1.8c-1,0.5-2.2,0.8-3.6,0.8
					c-1,0-1.9-0.1-2.8-0.4c-1.6-0.7-2.4-1.8-2.5-3.3l0-0.3c0-1,0.4-1.9,1.1-2.7c0.8-0.8,2.1-1.2,3.9-1.2c0.8,0,1.2,0.2,1.4,0.5
					c0.1,0.3,0.2,0.6,0.2,0.9l0,0.3v2.3c0,0.4-0.2,0.7-0.6,0.8c-0.2,0.1-0.5,0.1-0.7,0.1c-0.2,0-0.4,0-0.7-0.1
					c-0.3-0.1-0.5-0.3-0.6-0.8l0-0.1v-1.9c-0.9,0.2-1.4,0.9-1.4,1.8c0,0.8,0.2,1.3,0.7,1.6c0.4,0.3,1.1,0.5,2,0.5
					c0.9,0,1.6-0.2,2.1-0.5c0.3-0.3,0.5-0.6,0.5-1.1c0-0.3,0.1-0.6,0.1-1l0-1.2v-1c0-0.7-0.1-1.3-0.4-1.6c-0.2-0.4-0.7-0.6-1.4-0.7
					c-0.5-0.1-1.1-0.1-1.8-0.1l-1.9,0h-1.2c-0.5,0-0.9-0.2-1.1-0.4c-0.1-0.2-0.2-0.4-0.2-0.6c0-0.1,0-0.3,0.1-0.5
					c0.1-0.4,0.7-0.5,1.8-0.5h2.1l0.7,0c0.7,0,1.4,0,2.1,0.1c0.7,0.1,1.5,0.4,2.2,0.8c0.7,0.6,1.2,1.2,1.4,1.9
					c0.1,0.5,0.2,1.1,0.2,1.8L93.1,105.4z"/>
				<path class="st3" d="M104.6,103.5c-0.1-0.7-0.4-1.3-0.9-1.9c-0.5-0.5-1.1-0.9-1.9-1.1c-0.8-0.2-1.6-0.3-2.4-0.3
					c-1.8,0-3.2,0.4-4.2,1.3c-0.7,0.7-1.1,1.6-1.1,2.7c0,1.2,0.4,2.1,1.1,2.8c0.8,0.7,1.7,1.2,2.5,1.2c0.8,0.1,1.4,0.1,1.7,0.1
					c1,0,1.8-0.1,2.6-0.4v2.4c0,0.2,0.1,0.4,0.2,0.5c0.3,0.3,0.6,0.5,1.1,0.5c0.2,0,0.4,0,0.5-0.1c0.5-0.2,0.7-0.5,0.7-0.9v-5.9
					C104.7,103.9,104.6,103.6,104.6,103.5z M102,104.6c-0.1,0.5-0.2,0.8-0.4,1c-0.3,0.3-0.6,0.5-1.1,0.6c-0.5,0.1-0.8,0.1-1.1,0.1
					c-0.3,0-0.6,0-1-0.1c-0.6-0.1-1-0.3-1.3-0.5c-0.3-0.3-0.4-0.8-0.4-1.5c0-0.7,0.2-1.2,0.5-1.5c0.5-0.4,0.9-0.5,1.3-0.6
					c0.4,0,0.7,0,0.7,0c0.7,0,1.3,0.1,1.7,0.2c0.5,0.2,0.8,0.4,0.9,0.8c0.1,0.4,0.2,0.7,0.2,1C102.1,104.3,102.1,104.5,102,104.6z"
					/>
			</g>
			<g>
				<path class="st3" d="M33.6,102.8l-0.1-0.2c-0.2-0.3-0.2-0.5-0.3-0.5c0,0,0,0,0-0.1c0,0,0,0,0,0l0,0c0.4-0.2,0.6-0.5,0.6-0.9
					c0-0.3-0.1-0.5-0.4-0.7c-0.3-0.2-0.6-0.3-0.9-0.3H16.6c-0.4,0-0.7,0.1-0.9,0.3c-0.3,0.2-0.4,0.4-0.4,0.7c0,0.3,0.1,0.5,0.4,0.7
					c0.3,0.2,0.6,0.3,0.9,0.3h3.2l-0.3,0.6c-0.2,0.5-0.2,1-0.2,1.4c0,0.5,0.1,1,0.2,1.4v0c0.6,1.5,1.9,2.3,4.1,2.5c0,0,0,0,0.1,0
					c0,0,0.3,0,0.9,0h0.2c0,0,0.1,0,0.1,0c0,0,0,0,0.1,0c0,0,0,0,0.1,0c0,0,0,0,0.1,0c0,0,0,0,0.1,0c0,0,0.1,0,0.1,0c0,0,0,0,0.1,0
					c0,0,0.1,0,0.1-0.1c0,0,0,0,0,0c0,0,0.1-0.1,0.2-0.1c0,0,0,0,0,0c0,0,0.1-0.1,0.1-0.1c0,0,0,0,0,0c0,0,0,0,0,0c0,0,0,0,0,0
					c0,0,0,0,0-0.1v-0.1c0,0,0,0,0-0.1c0,0,0,0,0-0.1v-3.1c0-0.3-0.1-0.5-0.4-0.7c-0.3-0.2-0.6-0.3-0.9-0.3c-0.4,0-0.7,0.1-0.9,0.3
					c-0.3,0.2-0.4,0.4-0.4,0.7v1.9l-0.3-0.1c-0.4-0.2-0.7-0.5-0.9-0.9c-0.1-0.3-0.1-0.6-0.1-0.9c0-0.3,0-0.6,0.1-0.9l0.2-0.3
					c0.1-0.2,0.3-0.3,0.4-0.4c0.2-0.1,0.4-0.2,0.7-0.3c0.6-0.1,1-0.1,1.2-0.1c0.6,0,1.2,0.1,1.6,0.2c0.7,0.3,1,0.9,1,1.8v3
					c0,0.2,0,0.3-0.1,0.5c0,0.2,0,0.3-0.1,0.4c-0.1,0.1-0.1,0.2-0.2,0.3c-0.1,0.1-0.1,0.2-0.2,0.2c-0.1,0.1-0.2,0.1-0.3,0.2
					c-0.1,0.1-0.2,0.1-0.3,0.1c-0.1,0-0.3,0.1-0.4,0.1c-0.2,0-0.3,0.1-0.5,0.1c-0.5,0-2,0-4.6,0c-1.2,0-2-0.3-2.3-0.8
					c-0.1-0.1-0.1-0.2-0.2-0.4c0-0.1-0.1-0.3-0.1-0.4c0-0.4,0-1.5,0-3.5c0-0.3-0.1-0.5-0.4-0.7c-0.3-0.2-0.6-0.3-0.9-0.3
					c-0.4,0-0.7,0.1-0.9,0.3c-0.3,0.2-0.4,0.4-0.4,0.7v3.1c0,0.2,0,0.5,0,0.7l0,0.1l0.2,0.6l0.3,0.7c0.8,1.3,2.4,1.9,4.7,1.9h4
					l0.9,0l0.2,0l0.9-0.1c0.1,0,0.3-0.1,0.7-0.2l0.2-0.1c0.4-0.2,0.6-0.3,0.7-0.3l0.5-0.4c0.1-0.1,0.1-0.1,0.2-0.2
					c0.2-0.3,0.4-0.4,0.4-0.5l0.3-0.6l0.1-0.4h0c0.1,0,0.3,0.1,0.4,0.1c0.1,0,0.2,0.1,0.3,0.1c0.1,0.1,0.2,0.1,0.2,0.2
					c0.1,0.1,0.1,0.2,0.2,0.2c0.1,0.1,0.1,0.2,0.2,0.3c0,0.1,0.1,0.3,0.1,0.4l0,0.6c0,0,0,0,0,0.1c0,0,0,0,0,0v0.1c0,0,0,0,0.1,0.1
					c0,0,0,0.1,0,0.1c0,0,0,0,0,0.1c0,0,0,0,0.1,0.1c0,0,0,0.1,0.2,0.1l0.2,0.1c0,0,0,0,0.1,0c0,0,0.1,0.1,0.1,0.1c0,0,0,0,0.1,0
					c0,0,0,0,0.1,0c0,0,0,0,0.1,0h0c0,0,0.1,0,0.1,0c0,0,0,0,0.1,0h0.1l0.1,0h0.1v0h0.1c0,0,0.1,0,0.1,0c0,0,0.1,0,0.1,0
					c0,0,0,0,0.1,0c0,0,0.1,0,0.1,0c0,0,0,0,0.1,0c0,0,0,0,0.1,0c0,0,0.1,0,0.1,0c0.1-0.1,0.2-0.1,0.2-0.1c0,0,0,0,0,0
					c0,0,0,0,0.1-0.1c0,0,0,0,0.1-0.1c0,0,0,0,0-0.1c0,0,0,0,0,0c0,0,0,0,0,0c0,0,0,0,0-0.1c0,0,0-0.1,0-0.1c0,0,0-0.1,0-0.1v-6.3
					c0-0.2,0-0.5,0-0.7L33.6,102.8z M30.5,106.4l-0.6-0.1v-2.1c0-0.8-0.2-1.4-0.5-2c0.7,0.1,1.2,0.3,1.5,0.7l0.2,0.3l0.1,0.4
					c0,0.4,0,1.3,0,3L30.5,106.4z"/>
			</g>
			<g>
				<path class="st3" d="M44.9,102.1c0.4,0.6,0.5,1.3,0.5,2v6.2c0,0.3-0.2,0.6-0.5,0.8c-0.3,0.2-0.6,0.2-0.9,0.2
					c-0.1,0-0.3,0-0.6-0.1c-0.3-0.1-0.5-0.3-0.7-0.9c0-0.2,0-0.4,0-0.6c0-0.2,0-0.5,0-0.8c0-0.3,0-0.6,0-0.8c0-0.3,0-0.6,0-1.1
					c0-0.4-0.1-0.8-0.3-1.1l0.3,0.5c-0.1-0.2-0.2-0.3-0.3-0.5c-0.2-0.2-0.3-0.4-0.5-0.5c-0.4-0.2-1-0.3-1.9-0.3
					c-1.1,0-1.9,0.3-2.2,0.8c-0.2,0.3-0.4,0.7-0.4,1.2c0,0.3,0.1,0.6,0.2,1l-0.1-0.3c0.2,0.7,0.6,1.1,1.3,1.3v-1.9
					c0-0.4,0.2-0.7,0.7-0.9c0.2-0.1,0.5-0.1,0.7-0.1c0.2,0,0.4,0,0.7,0.1c0.3,0.1,0.5,0.4,0.6,0.9v2.4l0,0.3c0,0.3-0.1,0.6-0.2,0.9
					c-0.1,0.3-0.5,0.4-1.2,0.5c-1.3,0-2.3-0.2-3.2-0.6c-0.9-0.4-1.5-1.1-1.8-1.9c-0.2-0.5-0.3-1-0.3-1.5c0-0.6,0.2-1.3,0.5-2.1
					c0.3-0.8,1.3-1.4,2.9-1.8l0,0c0.6-0.1,1.3-0.2,2-0.2c0.1,0,0.4,0,0.9,0c0.5,0,1,0.1,1.7,0.3c-0.1-0.4-0.3-0.8-0.7-1
					c-0.3-0.2-0.9-0.3-1.7-0.4c-0.5,0-1,0-1.5,0l-1.1,0h-1.6c-0.6,0-1-0.2-1.2-0.5c-0.1-0.2-0.1-0.3-0.1-0.5c0-0.6,0.5-1,1.4-1h7
					l0.5,0c0.5,0,0.8,0.1,1.1,0.1c0.5,0.2,0.7,0.5,0.7,0.9c0,0.3-0.2,0.6-0.5,0.8c0,0-0.1,0-0.1,0C44.9,102.1,44.9,102.1,44.9,102.1
					z"/>
			</g>
			<g>
				<path class="st3" d="M48.6,114.8c-0.3-0.1-0.5-0.1-0.9-0.1c-0.3,0-0.6,0-0.8-0.1c-0.6-0.2-1-0.4-1.2-0.7
					c-0.2-0.3-0.2-0.6-0.3-0.9s-0.1-0.6-0.3-0.9c-0.2-0.2-0.6-0.4-1.2-0.4h-3.3l-0.5,0c-0.1,0-0.3,0-0.4,0c-0.6,0.2-0.9,0.5-0.9,1.2
					c0,0.2,0,0.5,0.1,0.8c0.3,1.4,1.3,2.4,3,2.8c0.6,0.2,1.3,0.3,2,0.3c0.2,0,0.4,0,0.6-0.1c0.2,0,0.5-0.2,0.7-0.4
					c0.3,0.1,0.7,0.2,1.1,0.3c0.6,0.1,1.1,0.2,1.6,0.2c0.5,0,0.9-0.1,1.1-0.3c0.2-0.2,0.4-0.4,0.4-0.7
					C49.4,115.4,49.1,115,48.6,114.8z M42.8,114.6c-0.6-0.2-1-0.5-1.2-0.9h1.2V114.6z"/>
			</g>
			<g>
				<path class="st3" d="M56.5,102.1C56.5,102.1,56.5,102.1,56.5,102.1L56.5,102.1c0-0.1,0-0.1,0-0.1c0.4-0.2,0.5-0.5,0.5-0.8
					c0-0.1,0-0.3-0.1-0.4c-0.2-0.3-0.4-0.5-0.7-0.5c-0.3-0.1-0.5-0.1-0.8-0.1l-0.4,0h-7.3c-0.5,0-0.8,0.1-1,0.4
					c-0.2,0.2-0.3,0.4-0.3,0.6c0,0.1,0,0.3,0.1,0.4c0.1,0.2,0.2,0.3,0.3,0.3C47,102,47,102,47,102c0,0.1,0,0.1,0,0.2
					c-0.3,0.6-0.5,1.2-0.5,1.8c0,0.1,0,0.2,0,0.3c0,0.1,0.1,0.2,0.2,0.4c0.2,0.4,0.8,0.5,1.7,0.5c0.3,0,0.6,0.1,0.9,0.2
					c0.3,0.1,0.5,0.2,0.7,0.4c0.3,0.4,0.5,0.9,0.5,1.5c0,1-0.4,1.7-1.3,1.9v-0.9l0-0.5c0-0.3,0-0.6-0.1-0.9
					c-0.1-0.4-0.6-0.6-1.2-0.6c-0.7,0.1-1.1,0.2-1.2,0.5c-0.1,0.3-0.2,0.6-0.2,1c0,0.2,0,0.3,0,0.5c0,0.2,0,0.4,0,0.5l0,1.4
					c0,0.2,0,0.4,0.1,0.5c0.2,0.4,0.5,0.6,0.8,0.6c0.4,0,0.6,0,0.7,0c0.4,0,0.8,0,1.3-0.1c0.6-0.1,1-0.2,1.3-0.4
					c0.6-0.2,1-0.6,1.4-1c0.4-0.4,0.7-0.9,0.8-1.4c0.6,0.2,1,0.4,1.1,0.6c0.2,0.3,0.3,0.6,0.3,0.9c0,0.3,0.1,0.5,0.2,0.8
					c0.1,0.2,0.3,0.4,0.6,0.5c0.2,0.1,0.5,0.1,0.7,0.1c0.6,0,1-0.2,1.2-0.7c0-0.1,0.1-0.3,0.1-0.9v-5.1c0-0.4,0-0.8-0.1-1.1
					C56.9,103.1,56.8,102.6,56.5,102.1z M54.4,106.7c-0.2-0.1-0.5-0.1-0.7-0.2c-0.3-0.1-0.5-0.1-0.7-0.1c-0.4-1.5-1.4-2.5-3.2-2.9
					c-0.1,0-0.1,0-0.2-0.1c-0.1,0-0.2,0-0.2,0c-0.1,0-0.1,0-0.1,0c0.1-0.2,0.2-0.4,0.3-0.5c0.1-0.1,0.3-0.3,0.6-0.4
					c0.5-0.2,1-0.2,1.6-0.2c0.2,0,0.5,0,0.7,0c0.9,0.1,1.4,0.4,1.7,0.9c0.1,0.3,0.2,0.6,0.2,1c0,0.4,0,0.7,0,0.9L54.4,106.7z"/>
			</g>
			<g>
				<path class="st3" d="M61.1,115.8c0,0.3-0.1,0.5-0.4,0.7c-0.3,0.2-0.6,0.3-1.1,0.3c-0.5,0-1-0.1-1.6-0.2
					c-0.4-0.1-0.8-0.2-1.1-0.3c-0.2,0.2-0.5,0.4-0.7,0.4c-0.2,0-0.4,0.1-0.6,0.1c-0.7,0-1.4-0.1-2-0.3c-1.1-0.3-2-0.9-2.5-1.6
					c-0.4-0.6-0.6-1.3-0.6-2l0-0.4c0.2-0.5,0.6-0.7,1.2-0.8h0.2c0.5,0,0.9,0.2,1.2,0.6c0.1,0.2,0.1,0.4,0.1,0.6
					c0,0.2,0.1,0.5,0.1,0.7c0.1,0.2,0.3,0.5,0.6,0.7c0.2,0.1,0.4,0.2,0.6,0.2v-1.2c0-0.6,0-1,0.1-1c0.2-0.5,0.6-0.7,1.2-0.7
					c0.5,0,0.9,0.2,1.2,0.5c0.1,0.2,0.2,0.4,0.2,0.6v0.1c0,0.1,0,0.3,0.1,0.4c0,0.2,0.1,0.4,0.2,0.5c0.1,0.1,0.2,0.3,0.4,0.4
					c0.2,0.1,0.3,0.2,0.5,0.3c0.2,0.1,0.4,0.1,0.6,0.1c0.2,0,0.5,0.1,0.7,0.1h0.1c0.3,0,0.6,0.1,0.9,0.1
					C60.9,115.1,61.1,115.4,61.1,115.8z"/>
			</g>
			<g>
				<path class="st3" d="M69.1,94.8c0,0.3,0,0.5-0.1,0.8c-0.2,1-0.8,1.7-1.7,2.2c-0.9,0.5-2,0.8-3.4,0.8c-0.5,0-0.8-0.1-1.1-0.3
					c-0.2-0.2-0.3-0.4-0.3-0.7c0-0.1,0-0.2,0-0.4c0-0.2,0.3-0.4,0.7-0.6c0.2-0.1,0.6-0.1,0.9-0.1c0.7,0,1.3-0.1,1.7-0.4
					c0.2-0.2,0.4-0.3,0.4-0.6c0.1-0.2,0.1-0.4,0.1-0.7c0-0.3,0.1-0.6,0.2-0.8c0.1-0.2,0.4-0.4,0.9-0.5h0.2c0.7,0,1.1,0.2,1.3,0.6
					C69,94.3,69.1,94.5,69.1,94.8z"/>
				<path class="st3" d="M68,102.1C68,102,68.1,102,68,102.1c0.4-0.2,0.6-0.5,0.6-0.8c0-0.4-0.2-0.6-0.4-0.8
					c-0.2-0.1-0.4-0.2-0.7-0.3c-0.2,0-0.4,0-0.6,0h-7.4c-0.2,0-0.3,0-0.5,0c-0.6,0.1-0.9,0.4-1.1,1c0.1,0.4,0.3,0.7,0.6,0.8
					c0.3,0.1,0.7,0.2,1.2,0.2c0.4,0,0.7,0.1,1,0.1c0.3,0.1,0.6,0.2,0.8,0.5c0.2,0.3,0.4,0.7,0.4,1.4c0,0.5-0.1,0.9-0.3,1.2
					c-0.3,0.4-0.8,0.7-1.6,0.8h-0.2c-0.5,0-0.9,0.1-1.2,0.2c-0.4,0.1-0.5,0.5-0.5,1v0.1c0.1,1.7,0.9,2.8,2.5,3.4
					c0.6,0.2,1.2,0.3,1.7,0.4c0.5,0,0.9,0.1,1.4,0.1h3.9c0.6-0.1,1-0.3,1.1-0.5c0.1-0.3,0.2-0.5,0.2-0.7v-5.7c0-1-0.2-1.7-0.5-2.1
					C68.1,102.1,68,102.1,68,102.1z M66,105v4.3h-1.3l-0.7,0c-0.7,0-1.2,0-1.8-0.1c-0.7-0.1-1.2-0.4-1.4-1c0.5-0.1,0.9-0.2,1.3-0.3
					c0.9-0.4,1.6-0.9,1.9-1.5c0.4-0.7,0.5-1.3,0.5-2c0-0.8-0.2-1.5-0.5-2c0.9,0.1,1.4,0.4,1.6,0.8c0.2,0.4,0.2,0.8,0.2,1.2l0,0.3
					C66,104.7,66,104.9,66,105z"/>
			</g>
			<g>
				<path class="st3" d="M81.6,102.1c0,0.2,0.1,0.4,0.1,0.6c0,0.2,0,0.5-0.1,0.7c-0.1,0.3-0.4,0.5-0.9,0.6c-0.6,0-1.1-0.1-1.7-0.1
					c-0.6,0-1.1,0-1.6,0.1c-0.5,0-0.8-0.2-0.9-0.5c-0.1-0.2-0.1-0.5-0.1-0.8c0-0.1,0-0.3,0-0.5c0-0.2,0-0.3,0-0.5
					c0-0.3,0-0.6-0.1-0.9c0-1.1,0.4-1.9,1-2.4c0.7-0.6,1.5-0.8,2.5-0.8c0.6,0,1.1,0.1,1.5,0.3c0.3,0.1,0.4,0.3,0.4,0.4
					c0,0.1-0.1,0.2-0.2,0.3c-0.1,0.1-0.3,0.2-0.5,0.3c-0.2,0.1-0.5,0.1-0.8,0.2c-0.4,0.1-0.8,0.2-1.2,0.3c-0.4,0.1-0.6,0.4-0.7,0.7
					c0.2,0,0.4,0,0.6,0c0.2,0,0.5,0,0.7,0c0.2,0,0.4,0,0.6,0h0.2c0.3,0,0.6,0.1,0.8,0.3c0.2,0.2,0.3,0.3,0.3,0.5v0.1
					c-0.1,0.2-0.1,0.4-0.1,0.6C81.5,101.6,81.5,101.8,81.6,102.1z"/>
			</g>
		</g>
	</g>
</g>
</svg>
